<?xml version="1.0" encoding="UTF-8"?>
<svg id="Capa_2" data-name="Capa 2" xmlns="http://www.w3.org/2000/svg" viewBox="0 0 998.71 178.87">
  <defs>
    <style>
      .cls-1 {
        fill: #fff;
      }
    </style>
  </defs>
  <g id="Capa_9" data-name="Capa 9">
    <g>
      <g>
        <rect x="730.29" y="6.51" width="2.37" height="164.3"/>
        <g>
          <path d="m71.26,113.92h30.92c0,.74.04,1.83.11,3.27.07,1.44.11,2.57.11,3.38,0,19.73-4.16,34.37-12.47,43.94-8.31,9.57-21.04,14.35-38.18,14.35-8.13,0-15.11-1.05-20.95-3.16-5.84-2.11-10.86-5.37-15.07-9.81-5.76-5.91-9.83-14.04-12.19-24.38-2.37-10.34-3.55-28.37-3.55-54.08,0-17.58.7-31.57,2.11-41.95,1.4-10.38,3.58-18.12,6.54-23.22,4.58-7.83,10.27-13.5,17.07-17.01C32.51,1.76,41.19,0,51.75,0c17.29,0,29.87,4.51,37.73,13.52,7.87,9.01,11.84,23.49,11.91,43.44h-30.81v-4.1c0-9.23-1.5-16.12-4.49-20.67-2.99-4.54-7.55-6.82-13.69-6.82-7.61,0-12.8,3.14-15.57,9.42-2.77,6.28-4.16,23.64-4.16,52.09,0,30.74,1.35,49.43,4.04,56.08,2.7,6.65,7.85,9.97,15.46,9.97,7.09,0,12.04-2.6,14.85-7.81,2.81-5.21,4.21-14.83,4.21-28.87v-2.33Z"/>
          <path d="m125.28,174.76V4.1h31.81v170.66h-31.81Z"/>
          <path d="m183.62,174.76V4.1h47.87l23.38,110.49,23.38-110.49h47.87v170.66h-30.36l.66-151.38-31.81,151.38h-19.5l-31.81-151.38.78,151.38h-30.48Z"/>
          <path d="m340.15,174.76L378.61,4.1h42.67l38.79,170.66h-34.24l-8.42-42.89h-36.57l-8.2,42.89h-32.47Zm45.66-68.49h27.04l-13.63-71.59-13.41,71.59Z"/>
          <path d="m474.3,174.76V4.1h51.09c10.42,0,18.71.89,24.88,2.66,6.17,1.77,11.25,4.65,15.24,8.64,5.98,5.84,10.21,13.21,12.69,22.11,2.47,8.9,3.71,22.74,3.71,41.5,0,24.23-.85,41.36-2.55,51.37-1.7,10.01-4.58,18.53-8.64,25.54-3.92,7.02-9.36,11.91-16.35,14.68-6.98,2.77-19.08,4.16-36.29,4.16h-43.77Zm31.14-25.16h14.07c7.17,0,12.19-.52,15.07-1.55,2.88-1.03,5.17-2.81,6.87-5.32,2.95-4.43,5.06-10.51,6.32-18.23,1.26-7.72,1.88-20.08,1.88-37.07s-.74-28.59-2.22-36.13c-1.48-7.54-3.99-13.22-7.54-17.07-1.85-1.92-4.23-3.27-7.15-4.04-2.92-.78-7.48-1.16-13.69-1.16h-13.63v120.57Z"/>
          <path d="m605.23,174.76V4.1h87.66v28.37h-56.08v39.45h52.2v27.04h-52.2v46.99h57.41v28.81h-88.99Z"/>
        </g>
        <g>
          <path d="m770.99,84.35v-40.96h20.32v4.26h-15.8v13.17h14.76v4.15h-14.76v15.08h15.96v4.31h-20.48Z"/>
          <path d="m794.97,84.35v-40.96h11.6c4.65,0,8.07,1.55,10.27,4.65s3.3,7.93,3.3,14.47c0,4.61-.38,8.41-1.13,11.4-.75,2.99-1.94,5.36-3.55,7.11-1.1,1.21-2.34,2.06-3.72,2.57s-3.44.76-6.17.76h-10.59Zm4.57-3.91h5.93c1.91,0,3.4-.2,4.45-.59,1.06-.39,1.88-1.02,2.49-1.89.96-1.4,1.65-3.15,2.07-5.24s.64-5.03.64-8.8c0-6.61-.69-11.03-2.07-13.25-1.38-2.22-3.96-3.32-7.74-3.32h-5.77v33.09Z"/>
          <path d="m824,43.39h4.57v27.55c0,3.83.55,6.49,1.64,7.99,1.09,1.5,2.95,2.25,5.57,2.25s4.62-.82,5.88-2.47c1.26-1.65,1.89-4.24,1.89-7.77v-27.55h4.47v26.73c0,3.46-.2,5.9-.59,7.33s-1.05,2.69-1.97,3.79c-1.12,1.33-2.5,2.34-4.14,3.02s-3.51,1.02-5.6,1.02-4.07-.37-5.77-1.1-3.05-1.79-4.04-3.15c-.69-.92-1.18-2.11-1.48-3.55s-.44-3.9-.44-7.35v-26.73Z"/>
          <path d="m872,69.32h4.52c-.05,5.2-1.13,9.16-3.23,11.9s-5.13,4.11-9.08,4.11c-4.22,0-7.35-1.74-9.38-5.23s-3.05-8.86-3.05-16.13,1.01-13.08,3.02-16.48c2.01-3.4,5.26-5.09,9.75-5.09,3.74,0,6.63,1.09,8.66,3.26s3.05,5.26,3.05,9.27v.51h-4.42c0-2.8-.66-5-1.97-6.6-1.31-1.6-3.1-2.39-5.37-2.39-2.78,0-4.79,1.35-6.01,4.06-1.22,2.7-1.84,7.19-1.84,13.47s.63,10.5,1.89,13.1,3.33,3.9,6.22,3.9c2.32,0,4.11-.95,5.36-2.86,1.25-1.91,1.88-4.62,1.88-8.15v-.64Z"/>
          <path d="m877.84,84.35l11.17-40.96h5.82l11.33,40.96h-4.63l-3.11-11.81h-12.98l-2.98,11.81h-4.63Zm8.64-15.96h10.9l-5.45-21.46-5.45,21.46Z"/>
          <path d="m927.27,69.32h4.52c-.05,5.2-1.13,9.16-3.23,11.9-2.1,2.74-5.13,4.11-9.08,4.11-4.22,0-7.35-1.74-9.38-5.23-2.03-3.48-3.05-8.86-3.05-16.13s1.01-13.08,3.02-16.48c2.01-3.4,5.26-5.09,9.75-5.09,3.74,0,6.63,1.09,8.66,3.26,2.03,2.17,3.05,5.26,3.05,9.27v.51h-4.42c0-2.8-.66-5-1.97-6.6s-3.1-2.39-5.37-2.39c-2.78,0-4.79,1.35-6.01,4.06s-1.84,7.19-1.84,13.47.63,10.5,1.89,13.1,3.33,3.9,6.22,3.9c2.32,0,4.11-.95,5.36-2.86s1.88-4.62,1.88-8.15v-.64Z"/>
          <path d="m935.93,84.35v-40.96h4.68v40.96h-4.68Z"/>
          <path d="m944.38,63.87c0-7.62,1.03-13.11,3.1-16.45s5.41-5.01,10.03-5.01,8.01,1.65,10.06,4.96c2.05,3.31,3.07,8.81,3.07,16.5s-1.02,13.2-3.06,16.5c-2.04,3.31-5.39,4.96-10.07,4.96s-7.94-1.68-10.02-5.05c-2.07-3.37-3.11-8.84-3.11-16.41Zm4.76,0c0,6.58.62,11.13,1.87,13.64,1.25,2.52,3.41,3.78,6.49,3.78s5.29-1.23,6.52-3.68c1.23-2.46,1.85-7.03,1.85-13.74s-.62-11.25-1.85-13.7c-1.23-2.45-3.4-3.67-6.52-3.67s-5.24,1.25-6.49,3.76c-1.25,2.51-1.87,7.04-1.87,13.6Zm5.16-24.36l4.52-7.23h4.73l-6.57,7.23h-2.69Z"/>
          <path d="m974.4,84.35v-40.96h6.12l14.2,35.13-.43-35.13h4.42v40.96h-5.85l-14.42-36.17.37,36.17h-4.42Z"/>
        </g>
        <g>
          <path d="m787.11,129.08h7.42c0,.18,0,.44.03.78s.03.62.03.81c0,4.73-1,8.25-2.99,10.55-1.99,2.3-5.05,3.44-9.16,3.44-1.95,0-3.63-.25-5.03-.76s-2.61-1.29-3.62-2.35c-1.38-1.42-2.36-3.37-2.93-5.85-.57-2.48-.85-6.81-.85-12.98,0-4.22.17-7.58.51-10.07.34-2.49.86-4.35,1.57-5.57,1.1-1.88,2.46-3.24,4.1-4.08s3.71-1.26,6.25-1.26c4.15,0,7.17,1.08,9.06,3.24,1.89,2.16,2.84,5.64,2.86,10.43h-7.39v-.98c0-2.22-.36-3.87-1.08-4.96s-1.81-1.64-3.28-1.64c-1.83,0-3.07.75-3.74,2.26s-1,5.67-1,12.5c0,7.38.32,11.86.97,13.46.65,1.6,1.88,2.39,3.71,2.39,1.7,0,2.89-.63,3.56-1.88s1.01-3.56,1.01-6.93v-.56Z"/>
          <path d="m797.07,123.2c0-4.34.2-7.82.61-10.41.41-2.6,1.05-4.55,1.91-5.86,1.19-1.86,2.6-3.19,4.25-3.99s3.82-1.2,6.51-1.2,4.86.4,6.51,1.2,3.07,2.13,4.28,3.99c.87,1.35,1.5,3.32,1.9,5.9.4,2.59.6,6.05.6,10.37s-.2,7.76-.61,10.36c-.41,2.6-1.04,4.57-1.89,5.92-1.2,1.86-2.63,3.19-4.28,3.99s-3.82,1.2-6.51,1.2-4.86-.4-6.51-1.2c-1.65-.8-3.06-2.13-4.25-3.99-.87-1.31-1.51-3.27-1.91-5.86-.41-2.6-.61-6.07-.61-10.41Zm7.79,0c0,6.74.39,10.98,1.18,12.73.79,1.75,2.24,2.62,4.37,2.62s3.52-.86,4.28-2.57c.77-1.71,1.15-5.97,1.15-12.78s-.39-11.08-1.17-12.82c-.78-1.74-2.22-2.61-4.33-2.61s-3.55.87-4.33,2.61c-.78,1.74-1.17,6.01-1.17,12.82Z"/>
          <path d="m827.08,143.68v-40.96h7.85l10.67,28.64-.21-28.64h7.21v40.96h-7.79l-10.75-28.7.21,28.7h-7.18Z"/>
          <path d="m862.61,143.68v-34.2h-8.78v-6.76h25.19v6.76h-8.78v34.2h-7.63Z"/>
          <path d="m880.25,143.68v-40.96h7.63v40.96h-7.63Z"/>
          <path d="m892.08,143.68v-40.96h7.85l10.67,28.64-.21-28.64h7.21v40.96h-7.79l-10.75-28.7.21,28.7h-7.18Z"/>
          <path d="m921.77,102.72h7.63v27.61c0,3.16.39,5.3,1.16,6.42s2.14,1.69,4.11,1.69,3.3-.57,4.06-1.7,1.13-3.31,1.13-6.52v-27.5h7.53v28.27c0,2.75-.16,4.76-.47,6.02-.31,1.27-.83,2.38-1.56,3.34-1.1,1.44-2.55,2.51-4.36,3.23s-3.95,1.08-6.44,1.08c-4.68,0-7.98-1.02-9.91-3.05-1.92-2.03-2.89-5.57-2.89-10.63v-28.27Z"/>
          <path d="m948.52,143.68l9.23-40.96h10.24l9.31,40.96h-8.22l-2.02-10.29h-8.78l-1.97,10.29h-7.79Zm10.96-16.44h6.49l-3.27-17.18-3.22,17.18Z"/>
        </g>
      </g>
      <g>
        <rect class="cls-1" x="730.29" y="6.51" width="2.37" height="164.3"/>
        <g>
          <path class="cls-1" d="m71.26,113.92h30.92c0,.74.04,1.83.11,3.27.07,1.44.11,2.57.11,3.38,0,19.73-4.16,34.37-12.47,43.94-8.31,9.57-21.04,14.35-38.18,14.35-8.13,0-15.11-1.05-20.95-3.16-5.84-2.11-10.86-5.37-15.07-9.81-5.76-5.91-9.83-14.04-12.19-24.38-2.37-10.34-3.55-28.37-3.55-54.08,0-17.58.7-31.57,2.11-41.95,1.4-10.38,3.58-18.12,6.54-23.22,4.58-7.83,10.27-13.5,17.07-17.01C32.51,1.76,41.19,0,51.75,0c17.29,0,29.87,4.51,37.73,13.52,7.87,9.01,11.84,23.49,11.91,43.44h-30.81v-4.1c0-9.23-1.5-16.12-4.49-20.67-2.99-4.54-7.55-6.82-13.69-6.82-7.61,0-12.8,3.14-15.57,9.42-2.77,6.28-4.16,23.64-4.16,52.09,0,30.74,1.35,49.43,4.04,56.08,2.7,6.65,7.85,9.97,15.46,9.97,7.09,0,12.04-2.6,14.85-7.81,2.81-5.21,4.21-14.83,4.21-28.87v-2.33Z"/>
          <path class="cls-1" d="m125.28,174.76V4.1h31.81v170.66h-31.81Z"/>
          <path class="cls-1" d="m183.62,174.76V4.1h47.87l23.38,110.49,23.38-110.49h47.87v170.66h-30.36l.66-151.38-31.81,151.38h-19.5l-31.81-151.38.78,151.38h-30.48Z"/>
          <path class="cls-1" d="m340.15,174.76L378.61,4.1h42.67l38.79,170.66h-34.24l-8.42-42.89h-36.57l-8.2,42.89h-32.47Zm45.66-68.49h27.04l-13.63-71.59-13.41,71.59Z"/>
          <path class="cls-1" d="m474.3,174.76V4.1h51.09c10.42,0,18.71.89,24.88,2.66,6.17,1.77,11.25,4.65,15.24,8.64,5.98,5.84,10.21,13.21,12.69,22.11,2.47,8.9,3.71,22.74,3.71,41.5,0,24.23-.85,41.36-2.55,51.37-1.7,10.01-4.58,18.53-8.64,25.54-3.92,7.02-9.36,11.91-16.35,14.68-6.98,2.77-19.08,4.16-36.29,4.16h-43.77Zm31.14-25.16h14.07c7.17,0,12.19-.52,15.07-1.55,2.88-1.03,5.17-2.81,6.87-5.32,2.95-4.43,5.06-10.51,6.32-18.23,1.26-7.72,1.88-20.08,1.88-37.07s-.74-28.59-2.22-36.13c-1.48-7.54-3.99-13.22-7.54-17.07-1.85-1.92-4.23-3.27-7.15-4.04-2.92-.78-7.48-1.16-13.69-1.16h-13.63v120.57Z"/>
          <path class="cls-1" d="m605.23,174.76V4.1h87.66v28.37h-56.08v39.45h52.2v27.04h-52.2v46.99h57.41v28.81h-88.99Z"/>
        </g>
        <g>
          <path class="cls-1" d="m770.99,84.35v-40.96h20.32v4.26h-15.8v13.17h14.76v4.15h-14.76v15.08h15.96v4.31h-20.48Z"/>
          <path class="cls-1" d="m794.97,84.35v-40.96h11.6c4.65,0,8.07,1.55,10.27,4.65s3.3,7.93,3.3,14.47c0,4.61-.38,8.41-1.13,11.4-.75,2.99-1.94,5.36-3.55,7.11-1.1,1.21-2.34,2.06-3.72,2.57s-3.44.76-6.17.76h-10.59Zm4.57-3.91h5.93c1.91,0,3.4-.2,4.45-.59,1.06-.39,1.88-1.02,2.49-1.89.96-1.4,1.65-3.15,2.07-5.24s.64-5.03.64-8.8c0-6.61-.69-11.03-2.07-13.25-1.38-2.22-3.96-3.32-7.74-3.32h-5.77v33.09Z"/>
          <path class="cls-1" d="m824,43.39h4.57v27.55c0,3.83.55,6.49,1.64,7.99,1.09,1.5,2.95,2.25,5.57,2.25s4.62-.82,5.88-2.47c1.26-1.65,1.89-4.24,1.89-7.77v-27.55h4.47v26.73c0,3.46-.2,5.9-.59,7.33s-1.05,2.69-1.97,3.79c-1.12,1.33-2.5,2.34-4.14,3.02s-3.51,1.02-5.6,1.02-4.07-.37-5.77-1.1-3.05-1.79-4.04-3.15c-.69-.92-1.18-2.11-1.48-3.55s-.44-3.9-.44-7.35v-26.73Z"/>
          <path class="cls-1" d="m872,69.32h4.52c-.05,5.2-1.13,9.16-3.23,11.9s-5.13,4.11-9.08,4.11c-4.22,0-7.35-1.74-9.38-5.23s-3.05-8.86-3.05-16.13,1.01-13.08,3.02-16.48c2.01-3.4,5.26-5.09,9.75-5.09,3.74,0,6.63,1.09,8.66,3.26s3.05,5.26,3.05,9.27v.51h-4.42c0-2.8-.66-5-1.97-6.6-1.31-1.6-3.1-2.39-5.37-2.39-2.78,0-4.79,1.35-6.01,4.06-1.22,2.7-1.84,7.19-1.84,13.47s.63,10.5,1.89,13.1,3.33,3.9,6.22,3.9c2.32,0,4.11-.95,5.36-2.86,1.25-1.91,1.88-4.62,1.88-8.15v-.64Z"/>
          <path class="cls-1" d="m877.84,84.35l11.17-40.96h5.82l11.33,40.96h-4.63l-3.11-11.81h-12.98l-2.98,11.81h-4.63Zm8.64-15.96h10.9l-5.45-21.46-5.45,21.46Z"/>
          <path class="cls-1" d="m927.27,69.32h4.52c-.05,5.2-1.13,9.16-3.23,11.9-2.1,2.74-5.13,4.11-9.08,4.11-4.22,0-7.35-1.74-9.38-5.23-2.03-3.48-3.05-8.86-3.05-16.13s1.01-13.08,3.02-16.48c2.01-3.4,5.26-5.09,9.75-5.09,3.74,0,6.63,1.09,8.66,3.26,2.03,2.17,3.05,5.26,3.05,9.27v.51h-4.42c0-2.8-.66-5-1.97-6.6s-3.1-2.39-5.37-2.39c-2.78,0-4.79,1.35-6.01,4.06s-1.84,7.19-1.84,13.47.63,10.5,1.89,13.1,3.33,3.9,6.22,3.9c2.32,0,4.11-.95,5.36-2.86s1.88-4.62,1.88-8.15v-.64Z"/>
          <path class="cls-1" d="m935.93,84.35v-40.96h4.68v40.96h-4.68Z"/>
          <path class="cls-1" d="m944.38,63.87c0-7.62,1.03-13.11,3.1-16.45s5.41-5.01,10.03-5.01,8.01,1.65,10.06,4.96c2.05,3.31,3.07,8.81,3.07,16.5s-1.02,13.2-3.06,16.5c-2.04,3.31-5.39,4.96-10.07,4.96s-7.94-1.68-10.02-5.05c-2.07-3.37-3.11-8.84-3.11-16.41Zm4.76,0c0,6.58.62,11.13,1.87,13.64,1.25,2.52,3.41,3.78,6.49,3.78s5.29-1.23,6.52-3.68c1.23-2.46,1.85-7.03,1.85-13.74s-.62-11.25-1.85-13.7c-1.23-2.45-3.4-3.67-6.52-3.67s-5.24,1.25-6.49,3.76c-1.25,2.51-1.87,7.04-1.87,13.6Zm5.16-24.36l4.52-7.23h4.73l-6.57,7.23h-2.69Z"/>
          <path class="cls-1" d="m974.4,84.35v-40.96h6.12l14.2,35.13-.43-35.13h4.42v40.96h-5.85l-14.42-36.17.37,36.17h-4.42Z"/>
        </g>
        <g>
          <path class="cls-1" d="m787.11,129.08h7.42c0,.18,0,.44.03.78s.03.62.03.81c0,4.73-1,8.25-2.99,10.55-1.99,2.3-5.05,3.44-9.16,3.44-1.95,0-3.63-.25-5.03-.76s-2.61-1.29-3.62-2.35c-1.38-1.42-2.36-3.37-2.93-5.85-.57-2.48-.85-6.81-.85-12.98,0-4.22.17-7.58.51-10.07.34-2.49.86-4.35,1.57-5.57,1.1-1.88,2.46-3.24,4.1-4.08s3.71-1.26,6.25-1.26c4.15,0,7.17,1.08,9.06,3.24,1.89,2.16,2.84,5.64,2.86,10.43h-7.39v-.98c0-2.22-.36-3.87-1.08-4.96s-1.81-1.64-3.28-1.64c-1.83,0-3.07.75-3.74,2.26s-1,5.67-1,12.5c0,7.38.32,11.86.97,13.46.65,1.6,1.88,2.39,3.71,2.39,1.7,0,2.89-.63,3.56-1.88s1.01-3.56,1.01-6.93v-.56Z"/>
          <path class="cls-1" d="m797.07,123.2c0-4.34.2-7.82.61-10.41.41-2.6,1.05-4.55,1.91-5.86,1.19-1.86,2.6-3.19,4.25-3.99s3.82-1.2,6.51-1.2,4.86.4,6.51,1.2,3.07,2.13,4.28,3.99c.87,1.35,1.5,3.32,1.9,5.9.4,2.59.6,6.05.6,10.37s-.2,7.76-.61,10.36c-.41,2.6-1.04,4.57-1.89,5.92-1.2,1.86-2.63,3.19-4.28,3.99s-3.82,1.2-6.51,1.2-4.86-.4-6.51-1.2c-1.65-.8-3.06-2.13-4.25-3.99-.87-1.31-1.51-3.27-1.91-5.86-.41-2.6-.61-6.07-.61-10.41Zm7.79,0c0,6.74.39,10.98,1.18,12.73.79,1.75,2.24,2.62,4.37,2.62s3.52-.86,4.28-2.57c.77-1.71,1.15-5.97,1.15-12.78s-.39-11.08-1.17-12.82c-.78-1.74-2.22-2.61-4.33-2.61s-3.55.87-4.33,2.61c-.78,1.74-1.17,6.01-1.17,12.82Z"/>
          <path class="cls-1" d="m827.08,143.68v-40.96h7.85l10.67,28.64-.21-28.64h7.21v40.96h-7.79l-10.75-28.7.21,28.7h-7.18Z"/>
          <path class="cls-1" d="m862.61,143.68v-34.2h-8.78v-6.76h25.19v6.76h-8.78v34.2h-7.63Z"/>
          <path class="cls-1" d="m880.25,143.68v-40.96h7.63v40.96h-7.63Z"/>
          <path class="cls-1" d="m892.08,143.68v-40.96h7.85l10.67,28.64-.21-28.64h7.21v40.96h-7.79l-10.75-28.7.21,28.7h-7.18Z"/>
          <path class="cls-1" d="m921.77,102.72h7.63v27.61c0,3.16.39,5.3,1.16,6.42s2.14,1.69,4.11,1.69,3.3-.57,4.06-1.7,1.13-3.31,1.13-6.52v-27.5h7.53v28.27c0,2.75-.16,4.76-.47,6.02-.31,1.27-.83,2.38-1.56,3.34-1.1,1.44-2.55,2.51-4.36,3.23s-3.95,1.08-6.44,1.08c-4.68,0-7.98-1.02-9.91-3.05-1.92-2.03-2.89-5.57-2.89-10.63v-28.27Z"/>
          <path class="cls-1" d="m948.52,143.68l9.23-40.96h10.24l9.31,40.96h-8.22l-2.02-10.29h-8.78l-1.97,10.29h-7.79Zm10.96-16.44h6.49l-3.27-17.18-3.22,17.18Z"/>
        </g>
      </g>
    </g>
  </g>
</svg>